<svg width="1024" height="1024" viewBox="0 0 1024 1024" fill="none" xmlns="http://www.w3.org/2000/svg">
<g filter="url(#filter0_d_1_8)">
<path d="M127 158.5C127 141.931 140.431 128.5 157 128.5H867C883.569 128.5 897 141.931 897 158.5V869C897 885.569 883.569 899 867 899H509.5H157C140.431 899 127 885.569 127 869V158.5Z" fill="white" style="fill:white;fill-opacity:1;"/>
<path d="M157 133.5H867C880.807 133.5 892 144.693 892 158.5V869C892 882.807 880.807 894 867 894H157C143.193 894 132 882.807 132 869V158.5C132 144.693 143.193 133.5 157 133.5Z" stroke="#B9B9B9" style="stroke:#B9B9B9;stroke:color(display-p3 0.7260 0.7260 0.7260);stroke-opacity:1;" stroke-width="10"/>
</g>
<defs>
<filter id="filter0_d_1_8" x="123" y="128.5" width="778" height="778.5" filterUnits="userSpaceOnUse" color-interpolation-filters="sRGB">
<feFlood flood-opacity="0" result="BackgroundImageFix"/>
<feColorMatrix in="SourceAlpha" type="matrix" values="0 0 0 0 0 0 0 0 0 0 0 0 0 0 0 0 0 0 127 0" result="hardAlpha"/>
<feOffset dy="4"/>
<feGaussianBlur stdDeviation="2"/>
<feComposite in2="hardAlpha" operator="out"/>
<feColorMatrix type="matrix" values="0 0 0 0 0 0 0 0 0 0 0 0 0 0 0 0 0 0 0.25 0"/>
<feBlend mode="normal" in2="BackgroundImageFix" result="effect1_dropShadow_1_8"/>
<feBlend mode="normal" in="SourceGraphic" in2="effect1_dropShadow_1_8" result="shape"/>
</filter>
</defs>
</svg>
