<svg width="768" height="768" viewBox="0 0 768 768" fill="none" xmlns="http://www.w3.org/2000/svg">
<mask id="path-1-outside-1_1_17" maskUnits="userSpaceOnUse" x="202" y="157" width="372" height="458" fill="black">
<rect fill="white" x="202" y="157" width="372" height="458"/>
<path d="M227 605L270.8 479H214.4L218.6 452.6H280.4L326.6 319.4H260.6L264.8 293H336.2L380.6 167H411.2L366.8 293H474.8L519.2 167H551.6L505.4 293H561.8L557.6 319.4H495.8L449.6 452.6H515.6L511.4 479H440L396.2 605H365.6L409.4 479H301.4L257.6 605H227ZM311 452.6H419L465.2 319.4H357.2L311 452.6Z"/>
</mask>
<path d="M227 605L270.8 479H214.4L218.6 452.6H280.4L326.6 319.4H260.6L264.8 293H336.2L380.6 167H411.2L366.8 293H474.8L519.2 167H551.6L505.4 293H561.8L557.6 319.4H495.8L449.6 452.6H515.6L511.4 479H440L396.2 605H365.6L409.4 479H301.4L257.6 605H227ZM311 452.6H419L465.2 319.4H357.2L311 452.6Z" fill="#00FFAE" style="fill:#00FFAE;fill:color(display-p3 0.0000 1.0000 0.6833);fill-opacity:1;"/>
<path d="M227 605L217.554 601.717L212.937 615H227V605ZM270.8 479L280.246 482.283L284.863 469H270.8V479ZM214.4 479L204.524 477.429L202.683 489H214.4V479ZM218.6 452.6V442.6H210.065L208.724 451.029L218.6 452.6ZM280.4 452.6V462.6H287.516L289.848 455.877L280.4 452.6ZM326.6 319.4L336.048 322.677L340.653 309.4H326.6V319.4ZM260.6 319.4L250.724 317.829L248.883 329.4H260.6V319.4ZM264.8 293V283H256.265L254.924 291.429L264.8 293ZM336.2 293V303H343.279L345.632 296.323L336.2 293ZM380.6 167V157H373.521L371.168 163.676L380.6 167ZM411.2 167L420.632 170.323L425.327 157H411.2V167ZM366.8 293L357.368 289.676L352.674 303H366.8V293ZM474.8 293V303H481.879L484.232 296.323L474.8 293ZM519.2 167V157H512.121L509.768 163.676L519.2 167ZM551.6 167L560.989 170.443L565.918 157H551.6V167ZM505.4 293L496.011 289.557L491.082 303H505.4V293ZM561.8 293L571.676 294.571L573.517 283H561.8V293ZM557.6 319.4V329.4H566.135L567.476 320.971L557.6 319.4ZM495.8 319.4V309.4H488.684L486.352 316.123L495.8 319.4ZM449.6 452.6L440.152 449.323L435.547 462.6H449.6V452.6ZM515.6 452.6L525.476 454.171L527.317 442.6H515.6V452.6ZM511.4 479V489H519.935L521.276 480.571L511.4 479ZM440 479V469H432.889L430.554 475.717L440 479ZM396.2 605V615H403.311L405.646 608.283L396.2 605ZM365.6 605L356.154 601.717L351.537 615H365.6V605ZM409.4 479L418.846 482.283L423.463 469H409.4V479ZM301.4 479V469H294.289L291.954 475.717L301.4 479ZM257.6 605V615H264.711L267.046 608.283L257.6 605ZM311 452.6L301.552 449.323L296.947 462.6H311V452.6ZM419 452.6V462.6H426.116L428.448 455.877L419 452.6ZM465.2 319.4L474.648 322.677L479.253 309.4H465.2V319.4ZM357.2 319.4V309.4H350.084L347.752 316.123L357.2 319.4ZM227 605L236.446 608.283L280.246 482.283L270.8 479L261.354 475.717L217.554 601.717L227 605ZM270.8 479V469H214.4V479V489H270.8V479ZM214.4 479L224.276 480.571L228.476 454.171L218.6 452.6L208.724 451.029L204.524 477.429L214.4 479ZM218.6 452.6V462.6H280.4V452.6V442.6H218.6V452.6ZM280.4 452.6L289.848 455.877L336.048 322.677L326.6 319.4L317.152 316.123L270.952 449.323L280.4 452.6ZM326.6 319.4V309.4H260.6V319.4V329.4H326.6V319.4ZM260.6 319.4L270.476 320.971L274.676 294.571L264.8 293L254.924 291.429L250.724 317.829L260.6 319.4ZM264.8 293V303H336.2V293V283H264.8V293ZM336.2 293L345.632 296.323L390.032 170.323L380.6 167L371.168 163.676L326.768 289.676L336.2 293ZM380.6 167V177H411.2V167V157H380.6V167ZM411.2 167L401.768 163.676L357.368 289.676L366.8 293L376.232 296.323L420.632 170.323L411.2 167ZM366.8 293V303H474.8V293V283H366.8V293ZM474.8 293L484.232 296.323L528.632 170.323L519.2 167L509.768 163.676L465.368 289.676L474.8 293ZM519.2 167V177H551.6V167V157H519.2V167ZM551.6 167L542.211 163.557L496.011 289.557L505.4 293L514.789 296.443L560.989 170.443L551.6 167ZM505.4 293V303H561.8V293V283H505.4V293ZM561.8 293L551.924 291.429L547.724 317.829L557.6 319.4L567.476 320.971L571.676 294.571L561.8 293ZM557.6 319.4V309.4H495.8V319.4V329.4H557.6V319.4ZM495.8 319.4L486.352 316.123L440.152 449.323L449.6 452.6L459.048 455.877L505.248 322.677L495.8 319.4ZM449.6 452.6V462.6H515.6V452.6V442.6H449.6V452.6ZM515.6 452.6L505.724 451.029L501.524 477.429L511.4 479L521.276 480.571L525.476 454.171L515.6 452.6ZM511.4 479V469H440V479V489H511.4V479ZM440 479L430.554 475.717L386.754 601.717L396.2 605L405.646 608.283L449.446 482.283L440 479ZM396.2 605V595H365.6V605V615H396.2V605ZM365.6 605L375.046 608.283L418.846 482.283L409.4 479L399.954 475.717L356.154 601.717L365.6 605ZM409.4 479V469H301.4V479V489H409.4V479ZM301.4 479L291.954 475.717L248.154 601.717L257.6 605L267.046 608.283L310.846 482.283L301.4 479ZM257.6 605V595H227V605V615H257.6V605ZM311 452.6V462.6H419V452.6V442.6H311V452.6ZM419 452.6L428.448 455.877L474.648 322.677L465.2 319.4L455.752 316.123L409.552 449.323L419 452.6ZM465.2 319.4V309.4H357.2V319.4V329.4H465.2V319.4ZM357.2 319.4L347.752 316.123L301.552 449.323L311 452.6L320.448 455.877L366.648 322.677L357.2 319.4Z" fill="#B9B9B9" style="fill:#B9B9B9;fill:color(display-p3 0.7260 0.7260 0.7260);fill-opacity:1;" mask="url(#path-1-outside-1_1_17)"/>
</svg>
