<svg width="1279" height="1279" viewBox="0 0 1279 1279" fill="none" xmlns="http://www.w3.org/2000/svg">
<rect x="312.388" y="339.856" width="457" height="640" rx="30" transform="rotate(-16.8985 312.388 339.856)" fill="#D9D9D9" style="fill:#D9D9D9;fill:color(display-p3 0.8510 0.8510 0.8510);fill-opacity:1;"/>
<rect x="419.709" y="490.15" width="333" height="12" transform="rotate(-16.8985 419.709 490.15)" fill="#9E9E9E" style="fill:#9E9E9E;fill:color(display-p3 0.6202 0.6202 0.6202);fill-opacity:1;"/>
<rect x="436.242" y="534.249" width="333" height="12" transform="rotate(-16.8985 436.242 534.249)" fill="#9E9E9E" style="fill:#9E9E9E;fill:color(display-p3 0.6202 0.6202 0.6202);fill-opacity:1;"/>
<rect x="449.904" y="579.219" width="333" height="12" transform="rotate(-16.8985 449.904 579.219)" fill="#9E9E9E" style="fill:#9E9E9E;fill:color(display-p3 0.6202 0.6202 0.6202);fill-opacity:1;"/>
<rect x="463.565" y="624.19" width="333" height="12" transform="rotate(-16.8985 463.565 624.19)" fill="#9E9E9E" style="fill:#9E9E9E;fill:color(display-p3 0.6202 0.6202 0.6202);fill-opacity:1;"/>
<rect x="477.227" y="669.16" width="333" height="12" transform="rotate(-16.8985 477.227 669.16)" fill="#9E9E9E" style="fill:#9E9E9E;fill:color(display-p3 0.6202 0.6202 0.6202);fill-opacity:1;"/>
<rect x="490.889" y="714.131" width="333" height="12" transform="rotate(-16.8985 490.889 714.131)" fill="#9E9E9E" style="fill:#9E9E9E;fill:color(display-p3 0.6202 0.6202 0.6202);fill-opacity:1;"/>
<rect x="504.551" y="759.102" width="333" height="12" transform="rotate(-16.8985 504.551 759.102)" fill="#9E9E9E" style="fill:#9E9E9E;fill:color(display-p3 0.6202 0.6202 0.6202);fill-opacity:1;"/>
<rect x="518.213" y="804.072" width="333" height="12" transform="rotate(-16.8985 518.213 804.072)" fill="#9E9E9E" style="fill:#9E9E9E;fill:color(display-p3 0.6202 0.6202 0.6202);fill-opacity:1;"/>
<rect x="406.047" y="445.179" width="333" height="12" transform="rotate(-16.8985 406.047 445.179)" fill="#9E9E9E" style="fill:#9E9E9E;fill:color(display-p3 0.6202 0.6202 0.6202);fill-opacity:1;"/>
</svg>
