<svg width="1111" height="1118" viewBox="0 0 1111 1118" fill="none" xmlns="http://www.w3.org/2000/svg">
<rect x="445.171" y="185.719" width="457" height="640" rx="30" transform="rotate(11.6315 445.171 185.719)" fill="#D9D9D9" style="fill:#D9D9D9;fill:color(display-p3 0.8510 0.8510 0.8510);fill-opacity:1;"/>
<rect x="467.677" y="369.02" width="333" height="12" transform="rotate(11.6315 467.677 369.02)" fill="#9E9E9E" style="fill:#9E9E9E;fill:color(display-p3 0.6202 0.6202 0.6202);fill-opacity:1;"/>
<rect x="461.139" y="415.66" width="333" height="12" transform="rotate(11.6315 461.139 415.66)" fill="#9E9E9E" style="fill:#9E9E9E;fill:color(display-p3 0.6202 0.6202 0.6202);fill-opacity:1;"/>
<rect x="451.663" y="461.695" width="333" height="12" transform="rotate(11.6315 451.663 461.695)" fill="#9E9E9E" style="fill:#9E9E9E;fill:color(display-p3 0.6202 0.6202 0.6202);fill-opacity:1;"/>
<rect x="442.187" y="507.73" width="333" height="12" transform="rotate(11.6315 442.187 507.73)" fill="#9E9E9E" style="fill:#9E9E9E;fill:color(display-p3 0.6202 0.6202 0.6202);fill-opacity:1;"/>
<rect x="432.711" y="553.765" width="333" height="12" transform="rotate(11.6315 432.711 553.765)" fill="#9E9E9E" style="fill:#9E9E9E;fill:color(display-p3 0.6202 0.6202 0.6202);fill-opacity:1;"/>
<rect x="423.235" y="599.799" width="333" height="12" transform="rotate(11.6315 423.235 599.799)" fill="#9E9E9E" style="fill:#9E9E9E;fill:color(display-p3 0.6202 0.6202 0.6202);fill-opacity:1;"/>
<rect x="413.759" y="645.834" width="333" height="12" transform="rotate(11.6315 413.759 645.834)" fill="#9E9E9E" style="fill:#9E9E9E;fill:color(display-p3 0.6202 0.6202 0.6202);fill-opacity:1;"/>
<rect x="404.283" y="691.869" width="333" height="12" transform="rotate(11.6315 404.283 691.869)" fill="#9E9E9E" style="fill:#9E9E9E;fill:color(display-p3 0.6202 0.6202 0.6202);fill-opacity:1;"/>
<rect x="477.153" y="322.986" width="333" height="12" transform="rotate(11.6315 477.153 322.986)" fill="#9E9E9E" style="fill:#9E9E9E;fill:color(display-p3 0.6202 0.6202 0.6202);fill-opacity:1;"/>
</svg>
